<svg width="397" height="87" viewBox="0 0 397 87" fill="none" xmlns="http://www.w3.org/2000/svg">
<path d="M38.6473 24.8691C39.2373 22.509 39.434 21.6239 40.9091 21.2305C41.6958 21.0339 44.941 21.0339 47.0061 21.0339C56.84 21.0339 61.4619 21.4272 61.4619 29.0977C61.4619 30.5728 61.0686 34.3097 60.4785 37.9482L60.3802 39.1283C60.3802 39.5216 60.7736 40.1117 61.3636 40.1117C62.347 40.1117 62.347 39.62 62.642 38.0465L65.4938 20.6405C65.6905 19.7555 65.6905 19.5588 65.6905 19.2638C65.6905 18.182 65.1005 18.182 63.1337 18.182H9.34221C7.08041 18.182 6.98207 18.2804 6.39204 20.0505L0.393359 37.7515C0.295021 37.9482 0 39.0299 0 39.1283C0 39.62 0.393359 40.1117 0.983393 40.1117C1.7701 40.1117 1.96678 39.7183 2.36014 38.4399C6.49038 26.5409 8.5555 21.0339 21.6346 21.0339H28.2233C30.5834 21.0339 31.5668 21.0339 31.5668 22.1156C31.5668 22.4106 31.5668 22.6073 31.0751 24.3774L17.8977 77.1855C16.9143 81.0207 16.7176 82.0041 6.2937 82.0041C3.83523 82.0041 3.14685 82.0041 3.14685 83.8725C3.14685 84.8559 4.22858 84.8559 4.72027 84.8559C7.17875 84.8559 9.73557 84.6593 12.194 84.6593H27.5349C29.9934 84.6593 32.6486 84.8559 35.107 84.8559C36.1888 84.8559 37.1722 84.8559 37.1722 82.9875C37.1722 82.0041 36.4838 82.0041 33.927 82.0041C25.0765 82.0041 25.0765 81.119 25.0765 79.644C25.0765 79.5456 25.0765 78.8573 25.4698 77.2838L38.6473 24.8691Z" fill="black"/>
<path d="M165.766 40.4067C165.766 38.3416 165.078 37.4565 164.39 37.4565C163.996 37.4565 163.111 37.8499 163.013 40.1117C162.62 46.8971 155.736 50.929 149.344 50.929C143.64 50.929 138.723 47.8805 133.61 44.4386C128.299 40.8984 122.989 37.3582 116.597 37.3582C107.451 37.3582 100.174 44.3403 100.174 53.3874C100.174 55.5509 100.961 56.3376 101.551 56.3376C102.534 56.3376 102.928 54.4692 102.928 54.0758C103.42 45.8153 111.483 42.8652 116.597 42.8652C122.301 42.8652 127.218 45.9137 132.331 49.3555C137.642 52.8958 142.952 56.436 149.344 56.436C158.489 56.436 165.766 49.4539 165.766 40.4067ZM165.766 63.418C165.766 60.5662 164.586 60.3695 164.39 60.3695C163.996 60.3695 163.111 60.8612 163.013 63.0247C162.62 69.8101 155.736 73.842 149.344 73.842C143.64 73.842 138.723 70.7935 133.61 67.3516C128.299 63.8114 122.989 60.2712 116.597 60.2712C107.451 60.2712 100.174 67.2533 100.174 76.3004C100.174 78.4639 100.961 79.2506 101.551 79.2506C102.534 79.2506 102.928 77.3822 102.928 76.9888C103.42 68.7283 111.483 65.7782 116.597 65.7782C122.301 65.7782 127.218 68.8267 132.331 72.2685C137.642 75.8088 142.952 79.349 149.344 79.349C158.686 79.349 165.766 72.0719 165.766 63.418Z" fill="black"/>
<path d="M226.89 21.8206C226.89 19.5588 226.89 19.4604 224.923 19.4604C222.563 22.1156 217.646 25.7542 207.517 25.7542V28.606C209.779 28.606 214.696 28.606 220.104 26.0492V77.2838C220.104 80.824 219.809 82.0041 211.156 82.0041H208.107V84.8559C210.762 84.6593 220.301 84.6593 223.546 84.6593C226.792 84.6593 236.232 84.6593 238.887 84.8559V82.0041H235.839C227.185 82.0041 226.89 80.824 226.89 77.2838V21.8206Z" fill="black"/>
<path d="M290.768 53.3874C290.768 45.2253 290.276 37.2598 286.736 29.7861C282.704 21.6239 275.624 19.4604 270.805 19.4604C265.102 19.4604 258.12 22.3123 254.481 30.4744C251.728 36.6698 250.744 42.7668 250.744 53.3874C250.744 62.9263 251.433 70.1051 254.973 77.0872C258.808 84.5609 265.593 86.9211 270.707 86.9211C279.262 86.9211 284.179 81.8074 287.031 76.1038C290.571 68.7283 290.768 59.0911 290.768 53.3874ZM270.707 84.9543C267.56 84.9543 261.168 83.1842 259.3 72.4652C258.218 66.5649 258.218 59.0911 258.218 52.2074C258.218 44.1436 258.218 36.8665 259.791 31.0645C261.463 24.4757 266.478 21.4272 270.707 21.4272C274.444 21.4272 280.148 23.689 282.016 32.1462C283.294 37.7515 283.294 45.5203 283.294 52.2074C283.294 58.7961 283.294 66.2698 282.213 72.2685C280.344 83.0858 274.149 84.9543 270.707 84.9543Z" fill="black"/>
<path d="M311.444 22.3557C316.623 22.3557 319.901 26.1582 319.901 33.0419C319.901 41.2368 315.246 43.6625 311.771 43.6625C308.166 43.6625 303.249 42.3513 300.954 38.8767C303.314 38.8767 304.953 37.3688 304.953 35.2054C304.953 33.1075 303.445 31.5996 301.347 31.5996C299.577 31.5996 297.742 32.7141 297.742 35.3365C297.742 41.5646 304.429 45.6293 311.903 45.6293C320.622 45.6293 326.719 39.5979 326.719 33.0419C326.719 27.6005 322.392 22.618 315.705 21.1757C320.884 19.34 324.752 14.882 324.752 9.63722C324.752 4.39247 318.852 0.655579 312.034 0.655579C305.019 0.655579 299.708 4.45803 299.708 9.44054C299.708 11.8662 301.347 12.9152 303.052 12.9152C305.084 12.9152 306.396 11.4729 306.396 9.57166C306.396 7.14597 304.298 6.22813 302.855 6.16257C305.609 2.55681 310.657 2.36012 311.837 2.36012C313.542 2.36012 318.524 2.8846 318.524 9.63722C318.524 14.2264 316.623 16.9799 315.705 18.0288C313.738 20.0612 312.23 20.1923 308.231 20.4545C306.986 20.5201 306.461 20.5856 306.461 21.4379C306.461 22.3557 307.051 22.3557 308.166 22.3557H311.444Z" fill="black"/>
<path d="M355.516 1.83566C355.516 0.524477 355.516 0 354.14 0C353.287 0 353.222 0.0655596 352.566 0.983395L331.653 31.3374V33.5009H350.141V38.9423C350.141 41.368 349.944 42.0891 344.896 42.0891H343.388V44.2526C348.961 44.0559 349.092 44.0559 352.829 44.0559C356.565 44.0559 356.697 44.0559 362.269 44.2526V42.0891H360.761C355.713 42.0891 355.516 41.368 355.516 38.9423V33.5009H362.466V31.3374H355.516V1.83566ZM350.599 7.14598V31.3374H333.947L350.599 7.14598Z" fill="black"/>
<path d="M390.214 24.9126C390.214 40.909 382.609 43.6625 378.807 43.6625C377.43 43.6625 374.021 43.4659 372.251 41.4335C375.136 41.1713 375.332 39.0078 375.332 38.3522C375.332 36.3854 373.824 35.2709 372.251 35.2709C371.071 35.2709 369.17 35.9921 369.17 38.4833C369.17 42.9414 372.841 45.6293 378.873 45.6293C387.854 45.6293 396.377 36.7132 396.377 22.6835C396.377 5.6381 388.838 0.655579 382.085 0.655579C374.349 0.655579 367.4 6.68705 367.4 15.2753C367.4 23.7325 373.759 29.8951 381.167 29.8951C385.822 29.8951 388.641 26.9449 390.214 23.6014V24.9126ZM381.429 28.0594C378.414 28.0594 376.512 26.6827 375.07 24.257C373.562 21.8313 373.562 18.6844 373.562 15.3409C373.562 11.4729 373.562 8.71938 375.332 6.03146C376.971 3.67132 379.069 2.36012 382.151 2.36012C386.543 2.36012 388.444 6.68705 388.641 7.01484C390.018 10.2273 390.083 15.3409 390.083 16.6521C390.083 21.8313 387.264 28.0594 381.429 28.0594Z" fill="black"/>
</svg>
