<svg width="265" height="82" viewBox="0 0 265 82" fill="none" xmlns="http://www.w3.org/2000/svg">
<path d="M7.74973 29.9593C7.74973 6.04857 19.3743 2.26822 24.4778 2.26822C27.8801 2.26822 31.2825 3.30782 33.0781 6.14308C31.944 6.14308 28.3527 6.14308 28.3527 10.0179C28.3527 12.0971 29.7703 13.8928 32.2275 13.8928C34.5903 13.8928 36.1969 12.4752 36.1969 9.73443C36.1969 4.81996 32.6056 0 24.3833 0C12.4752 0 0 12.1917 0 32.9836C0 58.9736 11.3411 64.8331 19.3743 64.8331C29.6758 64.8331 38.4651 55.8548 38.4651 43.5686C38.4651 30.9989 29.6758 22.5876 20.2249 22.5876C11.8136 22.5876 8.69482 29.8648 7.74973 32.5111V29.9593ZM19.3743 62.2814C13.4203 62.2814 10.585 56.9889 9.73442 55.0042C8.88384 52.547 7.93875 47.916 7.93875 41.3004C7.93875 33.8342 11.3411 24.4778 19.8469 24.4778C25.0449 24.4778 27.7856 27.9746 29.2033 31.188C30.7154 34.6848 30.7154 39.4102 30.7154 43.4741C30.7154 48.2941 30.7154 52.547 28.9197 56.1383C26.557 60.6747 23.1547 62.2814 19.3743 62.2814Z" fill="black"/>
<path d="M54.4921 8.69517C58.556 10.0183 61.8638 10.1128 62.9034 10.1128C73.5829 10.1128 80.3875 2.26855 80.3875 0.945432C80.3875 0.567393 80.1985 0.0948486 79.6315 0.0948486C79.4424 0.0948486 79.2534 0.094849 78.4028 0.472887C73.1103 2.7411 68.5739 3.02463 66.1167 3.02463C59.8791 3.02463 55.4372 1.13445 53.6415 0.378378C52.9799 0.0948469 52.7909 0.0948486 52.6964 0.0948486C51.9403 0.0948486 51.9403 0.661901 51.9403 2.17405V30.2432C51.9403 31.9444 51.9403 32.5114 53.0745 32.5114C53.547 32.5114 53.6415 32.4169 54.5866 31.2828C57.2328 27.4079 61.6748 25.1397 66.4002 25.1397C71.4092 25.1397 73.8664 29.7706 74.6225 31.3773C76.2291 35.0632 76.3236 39.6941 76.3236 43.2854C76.3236 46.8768 76.3236 52.2638 73.6774 56.5167C71.5982 59.919 67.9124 62.2817 63.754 62.2817C57.5164 62.2817 51.3733 58.0288 49.6721 51.1297C50.1447 51.3187 50.7117 51.4132 51.1843 51.4132C52.7909 51.4132 55.3427 50.4681 55.3427 47.2548C55.3427 44.6086 53.547 43.0964 51.1843 43.0964C49.4831 43.0964 47.0259 43.947 47.0259 47.6328C47.0259 55.6661 53.4525 64.8335 63.943 64.8335C74.6225 64.8335 83.9789 55.8551 83.9789 43.8525C83.9789 32.6059 76.4182 23.2495 66.4947 23.2495C61.1077 23.2495 56.9493 25.6123 54.4921 28.2585V8.69517Z" fill="black"/>
<path d="M107.093 63.2266C107.093 57.745 105.298 53.6812 101.423 53.6812C98.3986 53.6812 96.8865 56.1384 96.8865 58.2176C96.8865 60.2968 98.3041 62.8485 101.517 62.8485C102.746 62.8485 103.786 62.4705 104.636 61.6199C104.825 61.4309 104.92 61.4309 105.014 61.4309C105.203 61.4309 105.203 62.754 105.203 63.2266C105.203 66.3453 104.636 72.4884 99.1547 78.6315C98.1151 79.7656 98.1151 79.9546 98.1151 80.1437C98.1151 80.6162 98.5876 81.0887 99.0602 81.0887C99.8162 81.0887 107.093 74.0951 107.093 63.2266Z" fill="black"/>
<path d="M171.705 46.9709H169.626C169.342 48.5776 168.586 53.7756 167.641 55.2877C166.98 56.1383 161.592 56.1383 158.757 56.1383H141.273C143.825 53.9646 149.59 47.916 152.047 45.6478C166.412 32.4166 171.705 27.5021 171.705 18.1457C171.705 7.27719 163.105 0 152.142 0C141.179 0 134.752 9.35639 134.752 17.4842C134.752 22.3041 138.91 22.3041 139.194 22.3041C141.179 22.3041 143.636 20.8865 143.636 17.8622C143.636 15.2159 141.84 13.4203 139.194 13.4203C138.343 13.4203 138.154 13.4203 137.871 13.5148C139.666 7.08817 144.77 2.74076 150.913 2.74076C158.946 2.74076 163.861 9.45089 163.861 18.1457C163.861 26.179 159.23 33.1726 153.843 39.2212L134.752 60.5802V62.8484H169.248L171.705 46.9709Z" fill="black"/>
<path d="M218.73 32.6056C218.73 24.7613 218.257 17.1061 214.855 9.92344C210.98 2.0792 204.176 0 199.545 0C194.063 0 187.353 2.74076 183.856 10.585C181.21 16.5391 180.265 22.3986 180.265 32.6056C180.265 41.773 180.926 48.6721 184.329 55.3822C188.015 62.5649 194.536 64.8331 199.45 64.8331C207.672 64.8331 212.398 59.9187 215.139 54.4371C218.541 47.349 218.73 38.0871 218.73 32.6056ZM199.45 62.9429C196.426 62.9429 190.283 61.2418 188.487 50.9403C187.448 45.2698 187.448 38.0871 187.448 31.4715C187.448 23.7217 187.448 16.7281 188.96 11.1521C190.566 4.81996 195.386 1.89019 199.45 1.89019C203.042 1.89019 208.523 4.06388 210.319 12.1917C211.547 17.5787 211.547 25.0449 211.547 31.4715C211.547 37.8036 211.547 44.9862 210.508 50.7513C208.712 61.1473 202.758 62.9429 199.45 62.9429Z" fill="black"/>
<path d="M234.284 29.9593C234.284 6.04857 245.909 2.26822 251.012 2.26822C254.415 2.26822 257.817 3.30782 259.613 6.14308C258.479 6.14308 254.887 6.14308 254.887 10.0179C254.887 12.0971 256.305 13.8928 258.762 13.8928C261.125 13.8928 262.732 12.4752 262.732 9.73443C262.732 4.81996 259.14 0 250.918 0C239.01 0 226.535 12.1917 226.535 32.9836C226.535 58.9736 237.876 64.8331 245.909 64.8331C256.21 64.8331 265 55.8548 265 43.5686C265 30.9989 256.21 22.5876 246.76 22.5876C238.348 22.5876 235.229 29.8648 234.284 32.5111V29.9593ZM245.909 62.2814C239.955 62.2814 237.12 56.9889 236.269 55.0042C235.419 52.547 234.473 47.916 234.473 41.3004C234.473 33.8342 237.876 24.4778 246.382 24.4778C251.58 24.4778 254.32 27.9746 255.738 31.188C257.25 34.6848 257.25 39.4102 257.25 43.4741C257.25 48.2941 257.25 52.547 255.454 56.1383C253.092 60.6747 249.689 62.2814 245.909 62.2814Z" fill="black"/>
</svg>
