<svg width="837" height="423" viewBox="0 0 837 423" fill="none" xmlns="http://www.w3.org/2000/svg">
<line x1="319" y1="422" x2="561" y2="422" stroke="#1C3F12" stroke-width="2"/>
<path d="M319 374L310.34 389H327.66L319 374ZM320.5 423V387.5H317.5V423H320.5Z" fill="#1C3F12"/>
<path d="M350.366 390.824V388.636H365.639V390.824H359.235V409H356.769V390.824H350.366ZM369.126 409V393.727H371.473V409H369.126ZM370.319 391.182C369.862 391.182 369.468 391.026 369.136 390.714C368.811 390.403 368.649 390.028 368.649 389.591C368.649 389.153 368.811 388.779 369.136 388.467C369.468 388.156 369.862 388 370.319 388C370.777 388 371.168 388.156 371.493 388.467C371.824 388.779 371.99 389.153 371.99 389.591C371.99 390.028 371.824 390.403 371.493 390.714C371.168 391.026 370.777 391.182 370.319 391.182ZM381.975 409.318C380.544 409.318 379.311 408.98 378.276 408.304C377.242 407.628 376.447 406.696 375.89 405.51C375.333 404.323 375.055 402.968 375.055 401.443C375.055 399.892 375.34 398.523 375.91 397.337C376.487 396.143 377.289 395.212 378.316 394.543C379.35 393.866 380.557 393.528 381.936 393.528C383.009 393.528 383.977 393.727 384.839 394.125C385.701 394.523 386.407 395.08 386.957 395.795C387.507 396.511 387.848 397.347 387.981 398.301H385.634C385.455 397.605 385.058 396.989 384.441 396.452C383.831 395.908 383.009 395.636 381.975 395.636C381.061 395.636 380.258 395.875 379.569 396.352C378.886 396.823 378.353 397.489 377.968 398.351C377.59 399.206 377.401 400.21 377.401 401.364C377.401 402.544 377.587 403.571 377.958 404.446C378.336 405.321 378.866 406 379.549 406.484C380.239 406.968 381.047 407.21 381.975 407.21C382.585 407.21 383.139 407.104 383.636 406.892C384.133 406.68 384.554 406.375 384.899 405.977C385.243 405.58 385.489 405.102 385.634 404.545H387.981C387.848 405.447 387.52 406.259 386.997 406.982C386.48 407.697 385.794 408.268 384.938 408.692C384.09 409.109 383.102 409.318 381.975 409.318ZM393.599 403.432L393.559 400.528H394.036L400.718 393.727H403.622L396.502 400.926H396.303L393.599 403.432ZM391.411 409V388.636H393.758V409H391.411ZM401.116 409L395.15 401.443L396.82 399.812L404.099 409H401.116ZM412.416 409.318C410.945 409.318 409.675 408.993 408.608 408.344C407.548 407.688 406.729 406.773 406.152 405.599C405.582 404.42 405.297 403.047 405.297 401.483C405.297 399.919 405.582 398.54 406.152 397.347C406.729 396.147 407.531 395.212 408.558 394.543C409.593 393.866 410.799 393.528 412.178 393.528C412.973 393.528 413.759 393.661 414.534 393.926C415.31 394.191 416.016 394.622 416.652 395.219C417.289 395.809 417.796 396.591 418.173 397.565C418.551 398.54 418.74 399.74 418.74 401.165V402.159H406.968V400.131H416.354C416.354 399.269 416.182 398.5 415.837 397.824C415.499 397.148 415.015 396.614 414.385 396.223C413.762 395.832 413.026 395.636 412.178 395.636C411.243 395.636 410.434 395.868 409.752 396.332C409.075 396.79 408.555 397.386 408.191 398.122C407.826 398.858 407.644 399.647 407.644 400.489V401.841C407.644 402.994 407.843 403.972 408.24 404.774C408.645 405.57 409.205 406.176 409.921 406.594C410.637 407.005 411.468 407.21 412.416 407.21C413.033 407.21 413.59 407.124 414.087 406.952C414.591 406.773 415.025 406.508 415.389 406.156C415.754 405.798 416.036 405.354 416.235 404.824L418.502 405.46C418.263 406.229 417.862 406.905 417.298 407.489C416.735 408.065 416.039 408.516 415.21 408.841C414.382 409.159 413.45 409.318 412.416 409.318ZM422.31 409V393.727H424.577V396.034H424.736C425.014 395.278 425.518 394.665 426.247 394.195C426.977 393.724 427.798 393.489 428.713 393.489C428.886 393.489 429.101 393.492 429.36 393.499C429.618 393.505 429.814 393.515 429.946 393.528V395.915C429.867 395.895 429.684 395.865 429.399 395.825C429.121 395.779 428.826 395.756 428.514 395.756C427.772 395.756 427.109 395.911 426.526 396.223C425.949 396.528 425.492 396.952 425.154 397.496C424.822 398.033 424.656 398.646 424.656 399.335V409H422.31ZM440.921 409V388.636H443.387V406.812H452.853V409H440.921ZM462.756 409.318C461.285 409.318 460.015 408.993 458.948 408.344C457.887 407.688 457.069 406.773 456.492 405.599C455.922 404.42 455.637 403.047 455.637 401.483C455.637 399.919 455.922 398.54 456.492 397.347C457.069 396.147 457.871 395.212 458.898 394.543C459.932 393.866 461.139 393.528 462.518 393.528C463.313 393.528 464.099 393.661 464.874 393.926C465.65 394.191 466.356 394.622 466.992 395.219C467.628 395.809 468.135 396.591 468.513 397.565C468.891 398.54 469.08 399.74 469.08 401.165V402.159H457.307V400.131H466.694C466.694 399.269 466.521 398.5 466.177 397.824C465.839 397.148 465.355 396.614 464.725 396.223C464.102 395.832 463.366 395.636 462.518 395.636C461.583 395.636 460.774 395.868 460.091 396.332C459.415 396.79 458.895 397.386 458.53 398.122C458.166 398.858 457.983 399.647 457.983 400.489V401.841C457.983 402.994 458.182 403.972 458.58 404.774C458.984 405.57 459.545 406.176 460.26 406.594C460.976 407.005 461.808 407.21 462.756 407.21C463.373 407.21 463.93 407.124 464.427 406.952C464.93 406.773 465.365 406.508 465.729 406.156C466.094 405.798 466.376 405.354 466.574 404.824L468.841 405.46C468.603 406.229 468.202 406.905 467.638 407.489C467.075 408.065 466.379 408.516 465.55 408.841C464.722 409.159 463.79 409.318 462.756 409.318ZM474.996 399.812V409H472.65V393.727H474.917V396.114H475.116C475.474 395.338 476.017 394.715 476.746 394.244C477.475 393.767 478.417 393.528 479.57 393.528C480.604 393.528 481.509 393.741 482.285 394.165C483.06 394.582 483.663 395.219 484.094 396.074C484.525 396.922 484.741 397.996 484.741 399.295V409H482.394V399.455C482.394 398.255 482.082 397.32 481.459 396.651C480.836 395.974 479.981 395.636 478.894 395.636C478.145 395.636 477.475 395.799 476.885 396.124C476.302 396.448 475.841 396.922 475.503 397.545C475.165 398.169 474.996 398.924 474.996 399.812ZM495.193 415.045C494.06 415.045 493.085 414.9 492.27 414.608C491.455 414.323 490.775 413.945 490.232 413.474C489.695 413.01 489.267 412.513 488.949 411.983L490.818 410.67C491.03 410.949 491.299 411.267 491.624 411.625C491.949 411.99 492.393 412.304 492.956 412.57C493.526 412.841 494.272 412.977 495.193 412.977C496.426 412.977 497.444 412.679 498.246 412.082C499.048 411.486 499.449 410.551 499.449 409.278V406.176H499.25C499.078 406.455 498.833 406.799 498.514 407.21C498.203 407.615 497.752 407.976 497.162 408.294C496.579 408.606 495.79 408.761 494.796 408.761C493.563 408.761 492.456 408.47 491.475 407.886C490.5 407.303 489.728 406.455 489.158 405.341C488.594 404.227 488.313 402.875 488.313 401.284C488.313 399.72 488.588 398.357 489.138 397.197C489.688 396.031 490.454 395.129 491.435 394.493C492.416 393.85 493.549 393.528 494.835 393.528C495.83 393.528 496.619 393.694 497.202 394.026C497.792 394.35 498.243 394.722 498.554 395.139C498.872 395.55 499.118 395.888 499.29 396.153H499.529V393.727H501.796V409.438C501.796 410.75 501.497 411.817 500.901 412.639C500.311 413.468 499.515 414.074 498.514 414.459C497.52 414.85 496.413 415.045 495.193 415.045ZM495.114 406.653C496.055 406.653 496.851 406.438 497.5 406.007C498.15 405.576 498.644 404.956 498.982 404.148C499.32 403.339 499.489 402.371 499.489 401.244C499.489 400.144 499.323 399.173 498.992 398.331C498.66 397.489 498.17 396.83 497.52 396.352C496.87 395.875 496.068 395.636 495.114 395.636C494.119 395.636 493.291 395.888 492.628 396.392C491.972 396.896 491.478 397.572 491.146 398.42C490.822 399.269 490.659 400.21 490.659 401.244C490.659 402.305 490.825 403.243 491.156 404.058C491.494 404.867 491.992 405.503 492.648 405.967C493.311 406.425 494.133 406.653 495.114 406.653ZM512.733 393.727V395.716H504.818V393.727H512.733ZM507.125 390.068H509.472V404.625C509.472 405.288 509.568 405.785 509.76 406.116C509.959 406.441 510.211 406.66 510.516 406.773C510.827 406.879 511.155 406.932 511.5 406.932C511.759 406.932 511.971 406.919 512.137 406.892C512.302 406.859 512.435 406.832 512.534 406.812L513.012 408.92C512.852 408.98 512.63 409.04 512.345 409.099C512.06 409.166 511.699 409.199 511.262 409.199C510.599 409.199 509.949 409.056 509.313 408.771C508.683 408.486 508.159 408.052 507.742 407.469C507.331 406.885 507.125 406.15 507.125 405.261V390.068ZM518.938 399.812V409H516.591V388.636H518.938V396.114H519.137C519.494 395.325 520.031 394.698 520.747 394.234C521.47 393.764 522.431 393.528 523.631 393.528C524.672 393.528 525.583 393.737 526.365 394.155C527.147 394.566 527.754 395.199 528.185 396.054C528.622 396.902 528.841 397.983 528.841 399.295V409H526.494V399.455C526.494 398.241 526.18 397.304 525.55 396.641C524.927 395.971 524.062 395.636 522.955 395.636C522.186 395.636 521.496 395.799 520.887 396.124C520.283 396.448 519.806 396.922 519.455 397.545C519.11 398.169 518.938 398.924 518.938 399.812Z" fill="#1C3F12"/>
<line x1="52" y1="60" x2="331" y2="60" stroke="#27629D" stroke-width="2"/>
<path d="M52 146L60.6603 131L43.3397 131L52 146ZM50.5 59L50.5 132.5L53.5 132.5L53.5 59L50.5 59Z" fill="#27629D"/>
<path d="M66.4284 27.8239V25.6364H81.7012V27.8239H75.2978V46H72.8319V27.8239H66.4284ZM89.1784 46.3182C87.7997 46.3182 86.5899 45.9901 85.5492 45.3338C84.5151 44.6776 83.7064 43.7595 83.123 42.5795C82.5463 41.3996 82.258 40.0208 82.258 38.4432C82.258 36.8523 82.5463 35.4635 83.123 34.277C83.7064 33.0904 84.5151 32.169 85.5492 31.5128C86.5899 30.8565 87.7997 30.5284 89.1784 30.5284C90.5572 30.5284 91.7637 30.8565 92.7978 31.5128C93.8385 32.169 94.6472 33.0904 95.2239 34.277C95.8072 35.4635 96.0989 36.8523 96.0989 38.4432C96.0989 40.0208 95.8072 41.3996 95.2239 42.5795C94.6472 43.7595 93.8385 44.6776 92.7978 45.3338C91.7637 45.9901 90.5572 46.3182 89.1784 46.3182ZM89.1784 44.2102C90.2258 44.2102 91.0875 43.9418 91.7637 43.4048C92.4398 42.8679 92.9403 42.1619 93.2651 41.2869C93.5899 40.4119 93.7523 39.464 93.7523 38.4432C93.7523 37.4223 93.5899 36.4711 93.2651 35.5895C92.9403 34.7079 92.4398 33.9953 91.7637 33.4517C91.0875 32.9081 90.2258 32.6364 89.1784 32.6364C88.1311 32.6364 87.2694 32.9081 86.5932 33.4517C85.9171 33.9953 85.4166 34.7079 85.0918 35.5895C84.767 36.4711 84.6046 37.4223 84.6046 38.4432C84.6046 39.464 84.767 40.4119 85.0918 41.2869C85.4166 42.1619 85.9171 42.8679 86.5932 43.4048C87.2694 43.9418 88.1311 44.2102 89.1784 44.2102ZM106.323 30.7273V32.7159H98.4082V30.7273H106.323ZM100.715 27.0682H103.062V41.625C103.062 42.2879 103.158 42.785 103.35 43.1165C103.549 43.4413 103.801 43.66 104.106 43.7727C104.417 43.8788 104.745 43.9318 105.09 43.9318C105.349 43.9318 105.561 43.9186 105.726 43.892C105.892 43.8589 106.025 43.8324 106.124 43.8125L106.601 45.9205C106.442 45.9801 106.22 46.0398 105.935 46.0994C105.65 46.1657 105.289 46.1989 104.851 46.1989C104.189 46.1989 103.539 46.0563 102.903 45.7713C102.273 45.4863 101.749 45.0521 101.331 44.4688C100.921 43.8854 100.715 43.1496 100.715 42.2614V27.0682ZM114.347 46.358C113.379 46.358 112.501 46.1757 111.712 45.8111C110.923 45.4399 110.297 44.9062 109.833 44.2102C109.369 43.5076 109.137 42.6591 109.137 41.6648C109.137 40.7898 109.309 40.0805 109.654 39.5369C109.999 38.9867 110.459 38.5559 111.036 38.2443C111.613 37.9328 112.249 37.7008 112.945 37.5483C113.648 37.3892 114.354 37.2633 115.063 37.1705C115.991 37.0511 116.743 36.9616 117.32 36.902C117.903 36.8357 118.328 36.7263 118.593 36.5739C118.865 36.4214 119.001 36.1562 119.001 35.7784V35.6989C119.001 34.7178 118.732 33.9555 118.195 33.4119C117.665 32.8684 116.859 32.5966 115.779 32.5966C114.659 32.5966 113.78 32.8419 113.144 33.3324C112.508 33.8229 112.06 34.3466 111.802 34.9034L109.574 34.108C109.972 33.1799 110.502 32.4574 111.165 31.9403C111.835 31.4167 112.564 31.0521 113.353 30.8466C114.148 30.6345 114.93 30.5284 115.699 30.5284C116.19 30.5284 116.753 30.5881 117.39 30.7074C118.033 30.8201 118.653 31.0554 119.249 31.4134C119.852 31.7713 120.353 32.3116 120.751 33.0341C121.148 33.7566 121.347 34.7244 121.347 35.9375V46H119.001V43.9318H118.881C118.722 44.2633 118.457 44.6179 118.086 44.9957C117.715 45.3736 117.221 45.6951 116.604 45.9602C115.988 46.2254 115.235 46.358 114.347 46.358ZM114.705 44.25C115.633 44.25 116.415 44.0677 117.052 43.7031C117.695 43.3385 118.179 42.8679 118.503 42.2912C118.835 41.7145 119.001 41.108 119.001 40.4716V38.3239C118.901 38.4432 118.682 38.5526 118.344 38.652C118.013 38.7448 117.628 38.8277 117.191 38.9006C116.76 38.9669 116.339 39.0265 115.928 39.0795C115.524 39.1259 115.196 39.1657 114.944 39.1989C114.334 39.2784 113.764 39.4077 113.233 39.5866C112.71 39.759 112.286 40.0208 111.961 40.3722C111.643 40.7169 111.483 41.1875 111.483 41.7841C111.483 42.5994 111.785 43.2159 112.388 43.6335C112.998 44.0445 113.77 44.25 114.705 44.25ZM127.977 25.6364V46H125.63V25.6364H127.977ZM139.354 27.8239V25.6364H154.627V27.8239H148.224V46H145.758V27.8239H139.354ZM158.115 46V30.7273H160.461V46H158.115ZM159.308 28.1818C158.85 28.1818 158.456 28.026 158.124 27.7145C157.8 27.4029 157.637 27.0284 157.637 26.5909C157.637 26.1534 157.8 25.7789 158.124 25.4673C158.456 25.1558 158.85 25 159.308 25C159.765 25 160.156 25.1558 160.481 25.4673C160.812 25.7789 160.978 26.1534 160.978 26.5909C160.978 27.0284 160.812 27.4029 160.481 27.7145C160.156 28.026 159.765 28.1818 159.308 28.1818ZM170.964 46.3182C169.532 46.3182 168.299 45.9801 167.265 45.304C166.231 44.6278 165.435 43.6965 164.878 42.5099C164.322 41.3234 164.043 39.9678 164.043 38.4432C164.043 36.892 164.328 35.5232 164.898 34.3366C165.475 33.1435 166.277 32.2121 167.305 31.5426C168.339 30.8665 169.545 30.5284 170.924 30.5284C171.998 30.5284 172.965 30.7273 173.827 31.125C174.689 31.5227 175.395 32.0795 175.945 32.7955C176.495 33.5114 176.837 34.3466 176.969 35.3011H174.623C174.444 34.6051 174.046 33.9886 173.43 33.4517C172.82 32.9081 171.998 32.6364 170.964 32.6364C170.049 32.6364 169.247 32.875 168.557 33.3523C167.875 33.8229 167.341 34.4891 166.956 35.3509C166.579 36.206 166.39 37.2102 166.39 38.3636C166.39 39.5436 166.575 40.571 166.947 41.446C167.324 42.321 167.855 43.0005 168.537 43.4844C169.227 43.9683 170.036 44.2102 170.964 44.2102C171.573 44.2102 172.127 44.1042 172.624 43.892C173.121 43.6799 173.542 43.375 173.887 42.9773C174.232 42.5795 174.477 42.1023 174.623 41.5455H176.969C176.837 42.447 176.509 43.259 175.985 43.9815C175.468 44.6974 174.782 45.2675 173.927 45.6918C173.078 46.1094 172.09 46.3182 170.964 46.3182ZM182.587 40.4318L182.547 37.5284H183.025L189.706 30.7273H192.61L185.491 37.9261H185.292L182.587 40.4318ZM180.4 46V25.6364H182.746V46H180.4ZM190.104 46L184.138 38.4432L185.809 36.8125L193.087 46H190.104ZM201.405 46.3182C199.933 46.3182 198.664 45.9934 197.596 45.3438C196.536 44.6875 195.717 43.7727 195.14 42.5994C194.57 41.4195 194.285 40.0473 194.285 38.483C194.285 36.9186 194.57 35.5398 195.14 34.3466C195.717 33.1468 196.519 32.2121 197.547 31.5426C198.581 30.8665 199.787 30.5284 201.166 30.5284C201.961 30.5284 202.747 30.661 203.523 30.9261C204.298 31.1913 205.004 31.6222 205.64 32.2188C206.277 32.8087 206.784 33.5909 207.162 34.5653C207.54 35.5398 207.729 36.7396 207.729 38.1648V39.1591H195.956V37.1307H205.342C205.342 36.2689 205.17 35.5 204.825 34.8239C204.487 34.1477 204.003 33.6141 203.373 33.223C202.75 32.8319 202.015 32.6364 201.166 32.6364C200.231 32.6364 199.423 32.8684 198.74 33.3324C198.064 33.7898 197.543 34.3864 197.179 35.1222C196.814 35.858 196.632 36.6468 196.632 37.4886V38.8409C196.632 39.9943 196.831 40.9721 197.229 41.7741C197.633 42.5696 198.193 43.1761 198.909 43.5938C199.625 44.0047 200.457 44.2102 201.405 44.2102C202.021 44.2102 202.578 44.1241 203.075 43.9517C203.579 43.7727 204.013 43.5076 204.378 43.1562C204.742 42.7983 205.024 42.3542 205.223 41.8239L207.49 42.4602C207.251 43.2292 206.85 43.9053 206.287 44.4886C205.723 45.0653 205.027 45.5161 204.199 45.8409C203.37 46.1591 202.439 46.3182 201.405 46.3182ZM211.298 46V30.7273H213.565V33.0341H213.724C214.003 32.2784 214.506 31.6652 215.236 31.1946C215.965 30.724 216.787 30.4886 217.702 30.4886C217.874 30.4886 218.089 30.4919 218.348 30.4986C218.606 30.5052 218.802 30.5152 218.934 30.5284V32.9148C218.855 32.8949 218.673 32.8651 218.388 32.8253C218.109 32.7789 217.814 32.7557 217.503 32.7557C216.76 32.7557 216.097 32.9115 215.514 33.223C214.937 33.5279 214.48 33.9522 214.142 34.4957C213.81 35.0327 213.645 35.6458 213.645 36.3352V46H211.298ZM241.046 30.7273C240.926 29.7197 240.442 28.9375 239.594 28.3807C238.745 27.8239 237.705 27.5455 236.472 27.5455C235.57 27.5455 234.781 27.6913 234.105 27.983C233.436 28.2746 232.912 28.6757 232.534 29.1861C232.163 29.6965 231.977 30.2765 231.977 30.9261C231.977 31.4697 232.107 31.937 232.365 32.3281C232.63 32.7126 232.968 33.0341 233.379 33.2926C233.79 33.5445 234.221 33.7533 234.672 33.919C235.123 34.0781 235.537 34.2074 235.915 34.3068L237.983 34.8636C238.513 35.0028 239.103 35.1951 239.753 35.4403C240.409 35.6856 241.036 36.0204 241.632 36.4446C242.235 36.8622 242.733 37.3991 243.124 38.0554C243.515 38.7116 243.71 39.517 243.71 40.4716C243.71 41.572 243.422 42.5663 242.845 43.4545C242.275 44.3428 241.44 45.0488 240.34 45.5724C239.246 46.0961 237.917 46.358 236.352 46.358C234.894 46.358 233.631 46.1226 232.564 45.652C231.503 45.1813 230.668 44.5251 230.058 43.6832C229.455 42.8414 229.114 41.8636 229.034 40.75H231.58C231.646 41.5189 231.905 42.1553 232.355 42.6591C232.813 43.1562 233.389 43.5275 234.085 43.7727C234.788 44.0114 235.544 44.1307 236.352 44.1307C237.294 44.1307 238.139 43.9782 238.888 43.6733C239.637 43.3617 240.23 42.9309 240.668 42.3807C241.105 41.8239 241.324 41.1742 241.324 40.4318C241.324 39.7557 241.135 39.2055 240.757 38.7812C240.379 38.357 239.882 38.0123 239.266 37.7472C238.649 37.482 237.983 37.25 237.267 37.0511L234.762 36.3352C233.171 35.8778 231.911 35.2249 230.983 34.3764C230.055 33.5279 229.591 32.4176 229.591 31.0455C229.591 29.9053 229.899 28.911 230.516 28.0625C231.139 27.2074 231.974 26.5445 233.021 26.0739C234.075 25.5966 235.252 25.358 236.551 25.358C237.864 25.358 239.03 25.5933 240.051 26.0639C241.072 26.5279 241.881 27.1643 242.477 27.973C243.081 28.7817 243.399 29.6998 243.432 30.7273H241.046ZM257.072 39.7557V30.7273H259.418V46H257.072V43.4148H256.912C256.555 44.1903 255.998 44.8499 255.242 45.3935C254.486 45.9304 253.532 46.1989 252.378 46.1989C251.424 46.1989 250.575 45.9901 249.833 45.5724C249.09 45.1482 248.507 44.5118 248.083 43.6634C247.659 42.8082 247.447 41.7311 247.447 40.4318V30.7273H249.793V40.2727C249.793 41.3864 250.105 42.2746 250.728 42.9375C251.358 43.6004 252.16 43.9318 253.134 43.9318C253.717 43.9318 254.311 43.7827 254.914 43.4844C255.524 43.1861 256.034 42.7287 256.445 42.1122C256.863 41.4957 257.072 40.7102 257.072 39.7557ZM263.716 51.7273V30.7273H265.983V33.1534H266.262C266.434 32.8883 266.673 32.5502 266.977 32.1392C267.289 31.7216 267.733 31.3504 268.31 31.0256C268.893 30.6941 269.682 30.5284 270.676 30.5284C271.962 30.5284 273.096 30.8499 274.077 31.4929C275.058 32.1359 275.824 33.0473 276.374 34.2273C276.924 35.4072 277.199 36.7992 277.199 38.4034C277.199 40.0208 276.924 41.4228 276.374 42.6094C275.824 43.7893 275.061 44.7041 274.087 45.3537C273.112 45.9967 271.989 46.3182 270.716 46.3182C269.735 46.3182 268.95 46.1558 268.36 45.831C267.77 45.4995 267.316 45.125 266.997 44.7074C266.679 44.2831 266.434 43.9318 266.262 43.6534H266.063V51.7273H263.716ZM266.023 38.3636C266.023 39.517 266.192 40.5346 266.53 41.4162C266.868 42.2912 267.362 42.9773 268.012 43.4744C268.661 43.965 269.457 44.2102 270.398 44.2102C271.379 44.2102 272.198 43.9517 272.854 43.4347C273.517 42.911 274.014 42.2083 274.345 41.3267C274.683 40.4384 274.852 39.4508 274.852 38.3636C274.852 37.2898 274.687 36.322 274.355 35.4602C274.03 34.5919 273.537 33.9058 272.874 33.402C272.218 32.8916 271.392 32.6364 270.398 32.6364C269.443 32.6364 268.641 32.8783 267.992 33.3622C267.342 33.8395 266.852 34.509 266.52 35.3707C266.189 36.2259 266.023 37.2235 266.023 38.3636ZM280.779 51.7273V30.7273H283.046V33.1534H283.324C283.496 32.8883 283.735 32.5502 284.04 32.1392C284.352 31.7216 284.796 31.3504 285.372 31.0256C285.956 30.6941 286.744 30.5284 287.739 30.5284C289.025 30.5284 290.158 30.8499 291.139 31.4929C292.12 32.1359 292.886 33.0473 293.436 34.2273C293.986 35.4072 294.262 36.7992 294.262 38.4034C294.262 40.0208 293.986 41.4228 293.436 42.6094C292.886 43.7893 292.124 44.7041 291.149 45.3537C290.175 45.9967 289.051 46.3182 287.779 46.3182C286.798 46.3182 286.012 46.1558 285.422 45.831C284.832 45.4995 284.378 45.125 284.06 44.7074C283.742 44.2831 283.496 43.9318 283.324 43.6534H283.125V51.7273H280.779ZM283.085 38.3636C283.085 39.517 283.254 40.5346 283.593 41.4162C283.931 42.2912 284.424 42.9773 285.074 43.4744C285.724 43.965 286.519 44.2102 287.46 44.2102C288.441 44.2102 289.26 43.9517 289.916 43.4347C290.579 42.911 291.076 42.2083 291.408 41.3267C291.746 40.4384 291.915 39.4508 291.915 38.3636C291.915 37.2898 291.749 36.322 291.418 35.4602C291.093 34.5919 290.599 33.9058 289.936 33.402C289.28 32.8916 288.455 32.6364 287.46 32.6364C286.506 32.6364 285.704 32.8783 285.054 33.3622C284.405 33.8395 283.914 34.509 283.583 35.3707C283.251 36.2259 283.085 37.2235 283.085 38.3636ZM300.188 25.6364V46H297.841V25.6364H300.188ZM305.997 51.7273C305.599 51.7273 305.245 51.6941 304.933 51.6278C304.622 51.5682 304.406 51.5085 304.287 51.4489L304.883 49.3807C305.453 49.5265 305.957 49.5795 306.395 49.5398C306.832 49.5 307.22 49.3045 307.558 48.9531C307.903 48.6084 308.218 48.0483 308.503 47.2727L308.94 46.0795L303.292 30.7273H305.838L310.054 42.8977H310.213L314.429 30.7273H316.974L310.491 48.2273C310.2 49.0161 309.838 49.669 309.407 50.1861C308.977 50.7098 308.476 51.0975 307.906 51.3494C307.343 51.6013 306.706 51.7273 305.997 51.7273Z" fill="#27629D"/>
<line x1="687" y1="50" x2="412" y2="50" stroke="#854986" stroke-width="2"/>
<path d="M412 110L420.66 95L403.34 95L412 110ZM410.5 49L410.5 96.5L413.5 96.5L413.5 49L410.5 49Z" fill="#854986"/>
<rect x="331" y="138" width="162" height="150" fill="#EFD5DE"/>
<path d="M445.846 17.6364V38H443.46L432.363 22.0114H432.164V38H429.698V17.6364H432.085L443.221 33.6648H443.42V17.6364H445.846ZM460.087 31.7557V22.7273H462.434V38H460.087V35.4148H459.928C459.57 36.1903 459.013 36.8499 458.258 37.3935C457.502 37.9304 456.547 38.1989 455.394 38.1989C454.439 38.1989 453.591 37.9901 452.849 37.5724C452.106 37.1482 451.523 36.5118 451.099 35.6634C450.674 34.8082 450.462 33.7311 450.462 32.4318V22.7273H452.809V32.2727C452.809 33.3864 453.12 34.2746 453.743 34.9375C454.373 35.6004 455.175 35.9318 456.15 35.9318C456.733 35.9318 457.326 35.7827 457.93 35.4844C458.539 35.1861 459.05 34.7287 459.461 34.1122C459.878 33.4957 460.087 32.7102 460.087 31.7557ZM466.732 38V22.7273H468.999V25.1136H469.198C469.516 24.2983 470.03 23.6652 470.739 23.2145C471.448 22.7571 472.3 22.5284 473.294 22.5284C474.302 22.5284 475.14 22.7571 475.81 23.2145C476.486 23.6652 477.013 24.2983 477.391 25.1136H477.55C477.941 24.3248 478.528 23.6984 479.31 23.2344C480.092 22.7637 481.03 22.5284 482.124 22.5284C483.489 22.5284 484.606 22.956 485.475 23.8111C486.343 24.6596 486.777 25.982 486.777 27.7784V38H484.431V27.7784C484.431 26.6515 484.122 25.8461 483.506 25.3622C482.889 24.8783 482.164 24.6364 481.328 24.6364C480.254 24.6364 479.423 24.9612 478.833 25.6108C478.243 26.2538 477.948 27.0691 477.948 28.0568V38H475.561V27.5398C475.561 26.6714 475.28 25.9721 474.716 25.4418C474.153 24.9048 473.427 24.6364 472.539 24.6364C471.929 24.6364 471.359 24.7988 470.828 25.1236C470.305 25.4484 469.88 25.8991 469.556 26.4759C469.237 27.0459 469.078 27.7055 469.078 28.4545V38H466.732ZM491.386 38V17.6364H493.732V25.1534H493.931C494.104 24.8883 494.342 24.5502 494.647 24.1392C494.959 23.7216 495.403 23.3504 495.98 23.0256C496.563 22.6941 497.352 22.5284 498.346 22.5284C499.632 22.5284 500.766 22.8499 501.747 23.4929C502.728 24.1359 503.493 25.0473 504.044 26.2273C504.594 27.4072 504.869 28.7992 504.869 30.4034C504.869 32.0208 504.594 33.4228 504.044 34.6094C503.493 35.7893 502.731 36.7041 501.757 37.3537C500.782 37.9967 499.659 38.3182 498.386 38.3182C497.405 38.3182 496.619 38.1558 496.029 37.831C495.439 37.4995 494.985 37.125 494.667 36.7074C494.349 36.2831 494.104 35.9318 493.931 35.6534H493.653V38H491.386ZM493.693 30.3636C493.693 31.517 493.862 32.5346 494.2 33.4162C494.538 34.2912 495.032 34.9773 495.681 35.4744C496.331 35.965 497.126 36.2102 498.068 36.2102C499.049 36.2102 499.867 35.9517 500.524 35.4347C501.186 34.911 501.684 34.2083 502.015 33.3267C502.353 32.4384 502.522 31.4508 502.522 30.3636C502.522 29.2898 502.356 28.322 502.025 27.4602C501.7 26.5919 501.206 25.9058 500.544 25.402C499.887 24.8916 499.062 24.6364 498.068 24.6364C497.113 24.6364 496.311 24.8783 495.661 25.3622C495.012 25.8395 494.521 26.509 494.19 27.3707C493.858 28.2259 493.693 29.2235 493.693 30.3636ZM514.862 38.3182C513.39 38.3182 512.121 37.9934 511.053 37.3438C509.993 36.6875 509.174 35.7727 508.597 34.5994C508.027 33.4195 507.742 32.0473 507.742 30.483C507.742 28.9186 508.027 27.5398 508.597 26.3466C509.174 25.1468 509.976 24.2121 511.004 23.5426C512.038 22.8665 513.244 22.5284 514.623 22.5284C515.419 22.5284 516.204 22.661 516.98 22.9261C517.755 23.1913 518.461 23.6222 519.097 24.2188C519.734 24.8087 520.241 25.5909 520.619 26.5653C520.997 27.5398 521.186 28.7396 521.186 30.1648V31.1591H509.413V29.1307H518.799C518.799 28.2689 518.627 27.5 518.282 26.8239C517.944 26.1477 517.46 25.6141 516.83 25.223C516.207 24.8319 515.472 24.6364 514.623 24.6364C513.688 24.6364 512.88 24.8684 512.197 25.3324C511.521 25.7898 511 26.3864 510.636 27.1222C510.271 27.858 510.089 28.6468 510.089 29.4886V30.8409C510.089 31.9943 510.288 32.9721 510.686 33.7741C511.09 34.5696 511.65 35.1761 512.366 35.5938C513.082 36.0047 513.914 36.2102 514.862 36.2102C515.478 36.2102 516.035 36.1241 516.532 35.9517C517.036 35.7727 517.47 35.5076 517.835 35.1562C518.199 34.7983 518.481 34.3542 518.68 33.8239L520.947 34.4602C520.708 35.2292 520.307 35.9053 519.744 36.4886C519.18 37.0653 518.484 37.5161 517.656 37.8409C516.827 38.1591 515.896 38.3182 514.862 38.3182ZM524.755 38V22.7273H527.022V25.0341H527.181C527.46 24.2784 527.963 23.6652 528.693 23.1946C529.422 22.724 530.244 22.4886 531.159 22.4886C531.331 22.4886 531.546 22.4919 531.805 22.4986C532.063 22.5052 532.259 22.5152 532.392 22.5284V24.9148C532.312 24.8949 532.13 24.8651 531.845 24.8253C531.566 24.7789 531.271 24.7557 530.96 24.7557C530.217 24.7557 529.554 24.9115 528.971 25.223C528.394 25.5279 527.937 25.9522 527.599 26.4957C527.267 27.0327 527.102 27.6458 527.102 28.3352V38H524.755ZM549.253 38.3182C547.874 38.3182 546.664 37.9901 545.623 37.3338C544.589 36.6776 543.781 35.7595 543.197 34.5795C542.621 33.3996 542.332 32.0208 542.332 30.4432C542.332 28.8523 542.621 27.4635 543.197 26.277C543.781 25.0904 544.589 24.169 545.623 23.5128C546.664 22.8565 547.874 22.5284 549.253 22.5284C550.631 22.5284 551.838 22.8565 552.872 23.5128C553.913 24.169 554.721 25.0904 555.298 26.277C555.881 27.4635 556.173 28.8523 556.173 30.4432C556.173 32.0208 555.881 33.3996 555.298 34.5795C554.721 35.7595 553.913 36.6776 552.872 37.3338C551.838 37.9901 550.631 38.3182 549.253 38.3182ZM549.253 36.2102C550.3 36.2102 551.162 35.9418 551.838 35.4048C552.514 34.8679 553.015 34.1619 553.339 33.2869C553.664 32.4119 553.827 31.464 553.827 30.4432C553.827 29.4223 553.664 28.4711 553.339 27.5895C553.015 26.7079 552.514 25.9953 551.838 25.4517C551.162 24.9081 550.3 24.6364 549.253 24.6364C548.205 24.6364 547.344 24.9081 546.667 25.4517C545.991 25.9953 545.491 26.7079 545.166 27.5895C544.841 28.4711 544.679 29.4223 544.679 30.4432C544.679 31.464 544.841 32.4119 545.166 33.2869C545.491 34.1619 545.991 34.8679 546.667 35.4048C547.344 35.9418 548.205 36.2102 549.253 36.2102ZM566.556 22.7273V24.7159H558.323V22.7273H566.556ZM560.789 38V20.6193C560.789 19.7443 560.995 19.0152 561.406 18.4318C561.817 17.8485 562.35 17.411 563.007 17.1193C563.663 16.8277 564.356 16.6818 565.085 16.6818C565.661 16.6818 566.132 16.7282 566.497 16.821C566.861 16.9138 567.133 17 567.312 17.0795L566.636 19.108C566.517 19.0682 566.351 19.0185 566.139 18.9588C565.933 18.8991 565.661 18.8693 565.323 18.8693C564.548 18.8693 563.988 19.0649 563.643 19.456C563.305 19.8471 563.136 20.4205 563.136 21.1761V38H560.789ZM576.925 19.8239V17.6364H592.197V19.8239H585.794V38H583.328V19.8239H576.925ZM595.685 38V22.7273H598.031V38H595.685ZM596.878 20.1818C596.421 20.1818 596.026 20.026 595.695 19.7145C595.37 19.4029 595.208 19.0284 595.208 18.5909C595.208 18.1534 595.37 17.7789 595.695 17.4673C596.026 17.1558 596.421 17 596.878 17C597.335 17 597.727 17.1558 598.051 17.4673C598.383 17.7789 598.548 18.1534 598.548 18.5909C598.548 19.0284 598.383 19.4029 598.051 19.7145C597.727 20.026 597.335 20.1818 596.878 20.1818ZM608.534 38.3182C607.102 38.3182 605.869 37.9801 604.835 37.304C603.801 36.6278 603.006 35.6965 602.449 34.5099C601.892 33.3234 601.613 31.9678 601.613 30.4432C601.613 28.892 601.898 27.5232 602.469 26.3366C603.045 25.1435 603.847 24.2121 604.875 23.5426C605.909 22.8665 607.115 22.5284 608.494 22.5284C609.568 22.5284 610.536 22.7273 611.398 23.125C612.259 23.5227 612.965 24.0795 613.515 24.7955C614.066 25.5114 614.407 26.3466 614.54 27.3011H612.193C612.014 26.6051 611.616 25.9886 611 25.4517C610.39 24.9081 609.568 24.6364 608.534 24.6364C607.619 24.6364 606.817 24.875 606.128 25.3523C605.445 25.8229 604.911 26.4891 604.527 27.3509C604.149 28.206 603.96 29.2102 603.96 30.3636C603.96 31.5436 604.146 32.571 604.517 33.446C604.895 34.321 605.425 35.0005 606.108 35.4844C606.797 35.9683 607.606 36.2102 608.534 36.2102C609.144 36.2102 609.697 36.1042 610.194 35.892C610.692 35.6799 611.113 35.375 611.457 34.9773C611.802 34.5795 612.047 34.1023 612.193 33.5455H614.54C614.407 34.447 614.079 35.259 613.555 35.9815C613.038 36.6974 612.352 37.2675 611.497 37.6918C610.648 38.1094 609.661 38.3182 608.534 38.3182ZM620.157 32.4318L620.118 29.5284H620.595L627.277 22.7273H630.18L623.061 29.9261H622.862L620.157 32.4318ZM617.97 38V17.6364H620.317V38H617.97ZM627.675 38L621.709 30.4432L623.379 28.8125L630.657 38H627.675ZM638.975 38.3182C637.503 38.3182 636.234 37.9934 635.167 37.3438C634.106 36.6875 633.287 35.7727 632.711 34.5994C632.141 33.4195 631.856 32.0473 631.856 30.483C631.856 28.9186 632.141 27.5398 632.711 26.3466C633.287 25.1468 634.09 24.2121 635.117 23.5426C636.151 22.8665 637.358 22.5284 638.736 22.5284C639.532 22.5284 640.317 22.661 641.093 22.9261C641.868 23.1913 642.574 23.6222 643.211 24.2188C643.847 24.8087 644.354 25.5909 644.732 26.5653C645.11 27.5398 645.299 28.7396 645.299 30.1648V31.1591H633.526V29.1307H642.912C642.912 28.2689 642.74 27.5 642.395 26.8239C642.057 26.1477 641.573 25.6141 640.944 25.223C640.321 24.8319 639.585 24.6364 638.736 24.6364C637.802 24.6364 636.993 24.8684 636.31 25.3324C635.634 25.7898 635.114 26.3864 634.749 27.1222C634.385 27.858 634.202 28.6468 634.202 29.4886V30.8409C634.202 31.9943 634.401 32.9721 634.799 33.7741C635.203 34.5696 635.763 35.1761 636.479 35.5938C637.195 36.0047 638.027 36.2102 638.975 36.2102C639.591 36.2102 640.148 36.1241 640.645 35.9517C641.149 35.7727 641.583 35.5076 641.948 35.1562C642.313 34.7983 642.594 34.3542 642.793 33.8239L645.06 34.4602C644.822 35.2292 644.421 35.9053 643.857 36.4886C643.294 37.0653 642.598 37.5161 641.769 37.8409C640.94 38.1591 640.009 38.3182 638.975 38.3182ZM648.868 38V22.7273H651.135V25.0341H651.295C651.573 24.2784 652.077 23.6652 652.806 23.1946C653.535 22.724 654.357 22.4886 655.272 22.4886C655.444 22.4886 655.66 22.4919 655.918 22.4986C656.177 22.5052 656.372 22.5152 656.505 22.5284V24.9148C656.425 24.8949 656.243 24.8651 655.958 24.8253C655.68 24.7789 655.385 24.7557 655.073 24.7557C654.331 24.7557 653.668 24.9115 653.084 25.223C652.508 25.5279 652.05 25.9522 651.712 26.4957C651.381 27.0327 651.215 27.6458 651.215 28.3352V38H648.868ZM670.105 26.1477L667.997 26.7443C667.864 26.393 667.669 26.0516 667.41 25.7202C667.158 25.3821 666.813 25.1037 666.376 24.8849C665.938 24.6662 665.378 24.5568 664.695 24.5568C663.761 24.5568 662.982 24.7723 662.359 25.2031C661.742 25.6274 661.434 26.1676 661.434 26.8239C661.434 27.4072 661.646 27.8679 662.07 28.206C662.495 28.544 663.158 28.8258 664.059 29.0511L666.326 29.608C667.692 29.9394 668.709 30.4465 669.379 31.1293C670.048 31.8054 670.383 32.6771 670.383 33.7443C670.383 34.6193 670.131 35.4015 669.627 36.0909C669.13 36.7803 668.434 37.3239 667.539 37.7216C666.644 38.1193 665.604 38.3182 664.417 38.3182C662.859 38.3182 661.57 37.9801 660.549 37.304C659.528 36.6278 658.882 35.6402 658.61 34.3409L660.838 33.7841C661.05 34.6061 661.451 35.2225 662.041 35.6335C662.637 36.0445 663.416 36.25 664.377 36.25C665.471 36.25 666.339 36.018 666.982 35.554C667.632 35.0833 667.957 34.5199 667.957 33.8636C667.957 33.3333 667.771 32.8892 667.4 32.5312C667.029 32.1667 666.459 31.8949 665.69 31.7159L663.144 31.1193C661.746 30.7879 660.718 30.2741 660.062 29.5781C659.412 28.8755 659.088 27.9972 659.088 26.9432C659.088 26.0814 659.329 25.3191 659.813 24.6562C660.304 23.9934 660.97 23.473 661.812 23.0952C662.66 22.7173 663.622 22.5284 664.695 22.5284C666.207 22.5284 667.393 22.8598 668.255 23.5227C669.124 24.1856 669.74 25.0606 670.105 26.1477Z" fill="#854986"/>
<line x1="595" y1="128" x2="837" y2="128" stroke="#AD643F" stroke-width="2"/>
<path d="M595 170L603.66 155H586.34L595 170ZM593.5 127V156.5H596.5V127H593.5Z" fill="#AD643F"/>
<path d="M632.052 95.6364H634.518V109.119C634.518 110.511 634.19 111.754 633.534 112.848C632.884 113.935 631.966 114.794 630.779 115.423C629.593 116.046 628.201 116.358 626.603 116.358C625.006 116.358 623.614 116.046 622.427 115.423C621.241 114.794 620.319 113.935 619.663 112.848C619.013 111.754 618.689 110.511 618.689 109.119V95.6364H621.154V108.92C621.154 109.915 621.373 110.8 621.811 111.575C622.248 112.344 622.871 112.951 623.68 113.395C624.495 113.832 625.47 114.051 626.603 114.051C627.737 114.051 628.711 113.832 629.527 113.395C630.342 112.951 630.965 112.344 631.396 111.575C631.833 110.8 632.052 109.915 632.052 108.92V95.6364ZM645.766 100.727V102.716H637.852V100.727H645.766ZM640.158 97.0682H642.505V111.625C642.505 112.288 642.601 112.785 642.793 113.116C642.992 113.441 643.244 113.66 643.549 113.773C643.861 113.879 644.189 113.932 644.533 113.932C644.792 113.932 645.004 113.919 645.17 113.892C645.335 113.859 645.468 113.832 645.567 113.812L646.045 115.92C645.886 115.98 645.664 116.04 645.379 116.099C645.094 116.166 644.732 116.199 644.295 116.199C643.632 116.199 642.982 116.056 642.346 115.771C641.716 115.486 641.192 115.052 640.775 114.469C640.364 113.885 640.158 113.15 640.158 112.261V97.0682ZM649.296 116V100.727H651.643V116H649.296ZM650.489 98.1818C650.032 98.1818 649.638 98.026 649.306 97.7145C648.981 97.4029 648.819 97.0284 648.819 96.5909C648.819 96.1534 648.981 95.7789 649.306 95.4673C649.638 95.1558 650.032 95 650.489 95C650.947 95 651.338 95.1558 651.663 95.4673C651.994 95.7789 652.16 96.1534 652.16 96.5909C652.16 97.0284 651.994 97.4029 651.663 97.7145C651.338 98.026 650.947 98.1818 650.489 98.1818ZM658.287 95.6364V116H655.941V95.6364H658.287ZM662.585 116V100.727H664.932V116H662.585ZM663.778 98.1818C663.321 98.1818 662.927 98.026 662.595 97.7145C662.27 97.4029 662.108 97.0284 662.108 96.5909C662.108 96.1534 662.27 95.7789 662.595 95.4673C662.927 95.1558 663.321 95 663.778 95C664.236 95 664.627 95.1558 664.952 95.4673C665.283 95.7789 665.449 96.1534 665.449 96.5909C665.449 97.0284 665.283 97.4029 664.952 97.7145C664.627 98.026 664.236 98.1818 663.778 98.1818ZM668.792 116V114.21L677.463 103.074V102.915H669.071V100.727H680.485V102.597L672.054 113.653V113.812H680.764V116H668.792ZM688.873 116.358C687.905 116.358 687.026 116.176 686.238 115.811C685.449 115.44 684.822 114.906 684.358 114.21C683.894 113.508 683.662 112.659 683.662 111.665C683.662 110.79 683.835 110.08 684.179 109.537C684.524 108.987 684.985 108.556 685.561 108.244C686.138 107.933 686.775 107.701 687.471 107.548C688.173 107.389 688.879 107.263 689.588 107.17C690.516 107.051 691.269 106.962 691.846 106.902C692.429 106.836 692.853 106.726 693.118 106.574C693.39 106.421 693.526 106.156 693.526 105.778V105.699C693.526 104.718 693.257 103.955 692.721 103.412C692.19 102.868 691.385 102.597 690.304 102.597C689.184 102.597 688.306 102.842 687.669 103.332C687.033 103.823 686.586 104.347 686.327 104.903L684.1 104.108C684.498 103.18 685.028 102.457 685.691 101.94C686.36 101.417 687.089 101.052 687.878 100.847C688.674 100.634 689.456 100.528 690.225 100.528C690.715 100.528 691.279 100.588 691.915 100.707C692.558 100.82 693.178 101.055 693.775 101.413C694.378 101.771 694.878 102.312 695.276 103.034C695.674 103.757 695.873 104.724 695.873 105.938V116H693.526V113.932H693.407C693.248 114.263 692.982 114.618 692.611 114.996C692.24 115.374 691.746 115.695 691.13 115.96C690.513 116.225 689.761 116.358 688.873 116.358ZM689.23 114.25C690.158 114.25 690.941 114.068 691.577 113.703C692.22 113.339 692.704 112.868 693.029 112.291C693.36 111.714 693.526 111.108 693.526 110.472V108.324C693.426 108.443 693.208 108.553 692.87 108.652C692.538 108.745 692.154 108.828 691.716 108.901C691.285 108.967 690.864 109.027 690.453 109.08C690.049 109.126 689.721 109.166 689.469 109.199C688.859 109.278 688.289 109.408 687.759 109.587C687.235 109.759 686.811 110.021 686.486 110.372C686.168 110.717 686.009 111.187 686.009 111.784C686.009 112.599 686.31 113.216 686.914 113.634C687.524 114.045 688.296 114.25 689.23 114.25ZM706.798 100.727V102.716H698.883V100.727H706.798ZM701.19 97.0682H703.536V111.625C703.536 112.288 703.632 112.785 703.825 113.116C704.023 113.441 704.275 113.66 704.58 113.773C704.892 113.879 705.22 113.932 705.565 113.932C705.823 113.932 706.035 113.919 706.201 113.892C706.367 113.859 706.499 113.832 706.599 113.812L707.076 115.92C706.917 115.98 706.695 116.04 706.41 116.099C706.125 116.166 705.763 116.199 705.326 116.199C704.663 116.199 704.013 116.056 703.377 115.771C702.747 115.486 702.224 115.052 701.806 114.469C701.395 113.885 701.19 113.15 701.19 112.261V97.0682ZM710.327 116V100.727H712.674V116H710.327ZM711.521 98.1818C711.063 98.1818 710.669 98.026 710.337 97.7145C710.013 97.4029 709.85 97.0284 709.85 96.5909C709.85 96.1534 710.013 95.7789 710.337 95.4673C710.669 95.1558 711.063 95 711.521 95C711.978 95 712.369 95.1558 712.694 95.4673C713.025 95.7789 713.191 96.1534 713.191 96.5909C713.191 97.0284 713.025 97.4029 712.694 97.7145C712.369 98.026 711.978 98.1818 711.521 98.1818ZM723.176 116.318C721.798 116.318 720.588 115.99 719.547 115.334C718.513 114.678 717.704 113.759 717.121 112.58C716.544 111.4 716.256 110.021 716.256 108.443C716.256 106.852 716.544 105.464 717.121 104.277C717.704 103.09 718.513 102.169 719.547 101.513C720.588 100.857 721.798 100.528 723.176 100.528C724.555 100.528 725.762 100.857 726.796 101.513C727.837 102.169 728.645 103.09 729.222 104.277C729.805 105.464 730.097 106.852 730.097 108.443C730.097 110.021 729.805 111.4 729.222 112.58C728.645 113.759 727.837 114.678 726.796 115.334C725.762 115.99 724.555 116.318 723.176 116.318ZM723.176 114.21C724.224 114.21 725.086 113.942 725.762 113.405C726.438 112.868 726.938 112.162 727.263 111.287C727.588 110.412 727.75 109.464 727.75 108.443C727.75 107.422 727.588 106.471 727.263 105.589C726.938 104.708 726.438 103.995 725.762 103.452C725.086 102.908 724.224 102.636 723.176 102.636C722.129 102.636 721.267 102.908 720.591 103.452C719.915 103.995 719.415 104.708 719.09 105.589C718.765 106.471 718.603 107.422 718.603 108.443C718.603 109.464 718.765 110.412 719.09 111.287C719.415 112.162 719.915 112.868 720.591 113.405C721.267 113.942 722.129 114.21 723.176 114.21ZM736.026 106.812V116H733.679V100.727H735.946V103.114H736.145C736.503 102.338 737.046 101.715 737.776 101.244C738.505 100.767 739.446 100.528 740.599 100.528C741.634 100.528 742.538 100.741 743.314 101.165C744.089 101.582 744.693 102.219 745.124 103.074C745.554 103.922 745.77 104.996 745.77 106.295V116H743.423V106.455C743.423 105.255 743.112 104.32 742.489 103.651C741.866 102.974 741.01 102.636 739.923 102.636C739.174 102.636 738.505 102.799 737.915 103.124C737.331 103.448 736.871 103.922 736.533 104.545C736.195 105.169 736.026 105.924 736.026 106.812ZM758.251 116V95.6364H765.132C766.723 95.6364 768.029 95.9081 769.049 96.4517C770.07 96.9886 770.826 97.7277 771.316 98.669C771.807 99.6103 772.052 100.681 772.052 101.881C772.052 103.08 771.807 104.144 771.316 105.072C770.826 106 770.074 106.73 769.059 107.26C768.045 107.784 766.749 108.045 765.172 108.045H759.603V105.818H765.092C766.179 105.818 767.054 105.659 767.717 105.341C768.386 105.023 768.87 104.572 769.169 103.989C769.474 103.399 769.626 102.696 769.626 101.881C769.626 101.065 769.474 100.353 769.169 99.7429C768.864 99.133 768.377 98.6624 767.707 98.331C767.038 97.9929 766.153 97.8239 765.052 97.8239H760.717V116H758.251ZM767.836 106.852L772.848 116H769.984L765.052 106.852H767.836ZM780.337 116.358C779.37 116.358 778.491 116.176 777.702 115.811C776.914 115.44 776.287 114.906 775.823 114.21C775.359 113.508 775.127 112.659 775.127 111.665C775.127 110.79 775.299 110.08 775.644 109.537C775.989 108.987 776.45 108.556 777.026 108.244C777.603 107.933 778.239 107.701 778.935 107.548C779.638 107.389 780.344 107.263 781.053 107.17C781.981 107.051 782.734 106.962 783.31 106.902C783.894 106.836 784.318 106.726 784.583 106.574C784.855 106.421 784.991 106.156 784.991 105.778V105.699C784.991 104.718 784.722 103.955 784.185 103.412C783.655 102.868 782.85 102.597 781.769 102.597C780.649 102.597 779.771 102.842 779.134 103.332C778.498 103.823 778.05 104.347 777.792 104.903L775.565 104.108C775.962 103.18 776.493 102.457 777.156 101.94C777.825 101.417 778.554 101.052 779.343 100.847C780.138 100.634 780.921 100.528 781.69 100.528C782.18 100.528 782.744 100.588 783.38 100.707C784.023 100.82 784.643 101.055 785.239 101.413C785.843 101.771 786.343 102.312 786.741 103.034C787.138 103.757 787.337 104.724 787.337 105.938V116H784.991V113.932H784.871C784.712 114.263 784.447 114.618 784.076 114.996C783.705 115.374 783.211 115.695 782.594 115.96C781.978 116.225 781.226 116.358 780.337 116.358ZM780.695 114.25C781.623 114.25 782.406 114.068 783.042 113.703C783.685 113.339 784.169 112.868 784.494 112.291C784.825 111.714 784.991 111.108 784.991 110.472V108.324C784.891 108.443 784.673 108.553 784.335 108.652C784.003 108.745 783.619 108.828 783.181 108.901C782.75 108.967 782.329 109.027 781.918 109.08C781.514 109.126 781.186 109.166 780.934 109.199C780.324 109.278 779.754 109.408 779.224 109.587C778.7 109.759 778.276 110.021 777.951 110.372C777.633 110.717 777.474 111.187 777.474 111.784C777.474 112.599 777.775 113.216 778.379 113.634C778.988 114.045 779.761 114.25 780.695 114.25ZM798.262 100.727V102.716H790.348V100.727H798.262ZM792.654 97.0682H795.001V111.625C795.001 112.288 795.097 112.785 795.289 113.116C795.488 113.441 795.74 113.66 796.045 113.773C796.357 113.879 796.685 113.932 797.029 113.932C797.288 113.932 797.5 113.919 797.666 113.892C797.832 113.859 797.964 113.832 798.064 113.812L798.541 115.92C798.382 115.98 798.16 116.04 797.875 116.099C797.59 116.166 797.228 116.199 796.791 116.199C796.128 116.199 795.478 116.056 794.842 115.771C794.212 115.486 793.689 115.052 793.271 114.469C792.86 113.885 792.654 113.15 792.654 112.261V97.0682ZM808.032 116.318C806.56 116.318 805.291 115.993 804.223 115.344C803.163 114.688 802.344 113.773 801.767 112.599C801.197 111.42 800.912 110.047 800.912 108.483C800.912 106.919 801.197 105.54 801.767 104.347C802.344 103.147 803.146 102.212 804.174 101.543C805.208 100.866 806.414 100.528 807.793 100.528C808.588 100.528 809.374 100.661 810.15 100.926C810.925 101.191 811.631 101.622 812.267 102.219C812.904 102.809 813.411 103.591 813.789 104.565C814.167 105.54 814.355 106.74 814.355 108.165V109.159H802.583V107.131H811.969C811.969 106.269 811.797 105.5 811.452 104.824C811.114 104.148 810.63 103.614 810 103.223C809.377 102.832 808.641 102.636 807.793 102.636C806.858 102.636 806.05 102.868 805.367 103.332C804.691 103.79 804.17 104.386 803.806 105.122C803.441 105.858 803.259 106.647 803.259 107.489V108.841C803.259 109.994 803.458 110.972 803.855 111.774C804.26 112.57 804.82 113.176 805.536 113.594C806.252 114.005 807.084 114.21 808.032 114.21C808.648 114.21 809.205 114.124 809.702 113.952C810.206 113.773 810.64 113.508 811.005 113.156C811.369 112.798 811.651 112.354 811.85 111.824L814.117 112.46C813.878 113.229 813.477 113.905 812.914 114.489C812.35 115.065 811.654 115.516 810.826 115.841C809.997 116.159 809.066 116.318 808.032 116.318Z" fill="#AD643F"/>
<rect x="550" y="188" width="88" height="85" fill="#ECD6C1"/>
<rect x="193" y="298" width="146" height="72" fill="#D5DFCB"/>
<rect y="168" width="100" height="99" fill="#D0D7E4"/>
<path d="M56.8498 193.717C57.3819 191.589 57.5592 190.791 58.8894 190.436C59.5988 190.259 62.5251 190.259 64.3873 190.259C73.255 190.259 77.4228 190.613 77.4228 197.53C77.4228 198.86 77.0681 202.23 76.536 205.511L76.4473 206.575C76.4473 206.93 76.802 207.462 77.3341 207.462C78.2209 207.462 78.2209 207.018 78.4869 205.6L81.0585 189.904C81.2359 189.106 81.2359 188.928 81.2359 188.662C81.2359 187.687 80.7038 187.687 78.9303 187.687H30.4243C28.3847 187.687 28.296 187.776 27.764 189.372L22.3547 205.334C22.266 205.511 22 206.486 22 206.575C22 207.018 22.3547 207.462 22.8868 207.462C23.5962 207.462 23.7735 207.107 24.1282 205.954C27.8526 195.224 29.7149 190.259 41.5088 190.259H47.4501C49.5784 190.259 50.4651 190.259 50.4651 191.234C50.4651 191.5 50.4651 191.677 50.0217 193.274L38.1391 240.893C37.2523 244.351 37.075 245.238 27.6753 245.238C25.4584 245.238 24.8376 245.238 24.8376 246.923C24.8376 247.81 25.8131 247.81 26.2565 247.81C28.4734 247.81 30.779 247.632 32.9959 247.632H46.8294C49.0463 247.632 51.4406 247.81 53.6575 247.81C54.6329 247.81 55.5197 247.81 55.5197 246.125C55.5197 245.238 54.899 245.238 52.5934 245.238C44.6125 245.238 44.6125 244.44 44.6125 243.11C44.6125 243.021 44.6125 242.4 44.9672 240.981L56.8498 193.717Z" fill="black"/>
<path d="M167.31 219.078C168.552 219.078 170.148 219.078 170.148 217.482C170.148 215.797 168.641 215.797 167.31 215.797H115.08C113.839 215.797 112.242 215.797 112.242 217.394C112.242 219.078 113.75 219.078 115.08 219.078H167.31ZM167.31 235.572C168.552 235.572 170.148 235.572 170.148 233.976C170.148 232.291 168.641 232.291 167.31 232.291H115.08C113.839 232.291 112.242 232.291 112.242 233.887C112.242 235.572 113.75 235.572 115.08 235.572H167.31Z" fill="black"/>
<path d="M233.784 124.903C234.73 124.017 237.213 122.066 238.158 121.238C241.824 117.868 245.312 114.617 245.312 109.237C245.312 102.202 239.4 97.6503 232.01 97.6503C224.916 97.6503 220.246 103.03 220.246 108.291C220.246 111.188 222.551 111.602 223.379 111.602C224.621 111.602 226.453 110.715 226.453 108.469C226.453 105.395 223.497 105.395 222.788 105.395C224.502 101.079 228.463 99.6012 231.36 99.6012C236.858 99.6012 239.696 104.271 239.696 109.237C239.696 115.386 235.38 119.878 228.404 127.032L220.955 134.717C220.246 135.367 220.246 135.486 220.246 136.963H243.597L245.312 126.381H243.479C243.302 127.564 242.829 130.52 242.119 131.643C241.765 132.116 237.272 132.116 236.326 132.116H225.803L233.784 124.903Z" fill="black"/>
<path d="M271.811 98.7145C271.811 97.5321 271.811 97.0592 270.57 97.0592C269.801 97.0592 269.742 97.1183 269.151 97.946L250.292 125.317V127.268H266.964V132.175C266.964 134.362 266.786 135.013 262.234 135.013H260.875V136.964C265.9 136.786 266.018 136.786 269.387 136.786C272.757 136.786 272.875 136.786 277.9 136.964V135.013H276.541C271.989 135.013 271.811 134.362 271.811 132.175V127.268H278.078V125.317H271.811V98.7145ZM267.377 103.503V125.317H252.362L267.377 103.503Z" fill="black"/>
<path d="M309.839 100.961C310.371 100.311 310.371 100.192 310.371 98.8918H295.356C293.878 98.8918 292.045 98.8327 290.567 98.7144C287.493 98.4779 287.434 97.9459 287.256 97H285.424L283.414 109.474H285.246C285.365 108.587 286.015 104.508 286.843 104.035C287.493 103.739 291.927 103.739 292.814 103.739H305.346L299.257 111.898C292.518 120.884 291.099 130.224 291.099 134.894C291.099 135.486 291.099 138.205 293.878 138.205C296.656 138.205 296.656 135.545 296.656 134.835V131.998C296.656 123.485 298.075 116.509 300.972 112.666L309.839 100.961Z" fill="black"/>
<path d="M312.442 287.714L323.172 259.337H320.955C317.497 268.559 308.097 274.589 297.899 277.25C296.037 277.693 287.347 279.999 270.321 279.999H216.849L261.985 227.059C262.606 226.349 262.783 226.083 262.783 225.64C262.783 225.463 262.783 225.197 262.163 224.31L220.839 167.823H269.434C281.317 167.823 289.386 169.064 290.184 169.242C294.973 169.951 302.688 171.459 309.693 175.893C311.91 177.311 317.94 181.302 320.955 188.485H323.172L312.442 163.567H207.626C205.587 163.567 205.498 163.655 205.232 164.187C205.144 164.453 205.144 166.138 205.144 167.114L252.053 231.315L206.119 285.142C205.232 286.206 205.232 286.649 205.232 286.738C205.232 287.714 206.03 287.714 207.626 287.714H312.442Z" fill="black"/>
<path d="M246.677 311.736C246.736 311.499 246.854 311.145 246.854 310.849C246.854 310.435 246.499 310.14 246.086 310.14C245.672 310.14 245.494 310.317 245.022 310.849L240.883 315.401C240.351 314.633 237.218 310.14 230.301 310.14C216.586 310.14 202.752 322.85 202.752 336.447C202.752 346.733 210.556 353 219.956 353C227.7 353 234.262 348.271 237.454 343.659C239.405 340.763 240.174 337.925 240.174 337.57C240.174 337.038 239.819 336.802 239.287 336.802C238.578 336.802 238.459 337.097 238.282 337.748C235.799 345.906 227.818 351.049 220.724 351.049C214.694 351.049 208.369 347.502 208.369 338.457C208.369 336.565 209.019 326.693 215.581 319.303C220.015 314.337 226.045 312.091 230.715 312.091C238.164 312.091 241.238 318.061 241.238 323.678C241.238 324.505 241.002 325.628 241.002 326.338C241.002 327.106 241.77 327.106 242.007 327.106C242.775 327.106 242.893 326.87 243.13 325.806L246.677 311.736Z" fill="black"/>
<path d="M291.779 332.072C292.666 332.072 293.848 332.072 293.848 330.713C293.848 329.353 292.43 329.353 291.543 329.353H254.358C253.471 329.353 252.052 329.353 252.052 330.713C252.052 332.072 253.235 332.072 254.121 332.072H291.779ZM291.543 344.605C292.43 344.605 293.848 344.605 293.848 343.246C293.848 341.886 292.666 341.886 291.779 341.886H254.121C253.235 341.886 252.052 341.886 252.052 343.246C252.052 344.605 253.471 344.605 254.358 344.605H291.543Z" fill="black"/>
<path d="M315.982 314.101C315.982 312.504 315.864 312.445 314.267 312.445C311.844 314.81 308.71 316.229 303.094 316.229V318.18C304.69 318.18 307.883 318.18 311.312 316.583V346.911C311.312 349.098 311.134 349.808 305.518 349.808H303.449V351.758C305.873 351.581 310.957 351.581 313.617 351.581C316.277 351.581 321.421 351.581 323.845 351.758V349.808H321.775C316.159 349.808 315.982 349.098 315.982 346.911V314.101Z" fill="black"/>
<path d="M382.622 232.912H380.671C380.405 234.42 379.696 239.297 378.809 240.716C378.188 241.514 373.134 241.514 370.474 241.514H354.068C356.463 239.474 361.872 233.799 364.177 231.671C377.656 219.256 382.622 214.645 382.622 205.866C382.622 195.668 374.553 188.84 364.266 188.84C353.98 188.84 347.95 197.619 347.95 205.245C347.95 209.767 351.851 209.767 352.118 209.767C353.98 209.767 356.285 208.437 356.285 205.6C356.285 203.117 354.6 201.432 352.118 201.432C351.319 201.432 351.142 201.432 350.876 201.521C352.561 195.491 357.349 191.411 363.113 191.411C370.651 191.411 375.262 197.707 375.262 205.866C375.262 213.403 370.917 219.965 365.862 225.641L347.95 245.681V247.81H380.317L382.622 232.912Z" fill="black"/>
<path d="M397.926 216.95C397.926 194.515 408.833 190.968 413.622 190.968C416.814 190.968 420.006 191.944 421.691 194.604C420.627 194.604 417.257 194.604 417.257 198.24C417.257 200.19 418.588 201.875 420.893 201.875C423.11 201.875 424.618 200.545 424.618 197.974C424.618 193.362 421.248 188.84 413.533 188.84C402.36 188.84 390.655 200.279 390.655 219.788C390.655 244.174 401.296 249.672 408.833 249.672C418.499 249.672 426.746 241.248 426.746 229.72C426.746 217.926 418.499 210.034 409.631 210.034C401.739 210.034 398.813 216.862 397.926 219.345V216.95ZM408.833 247.278C403.247 247.278 400.586 242.312 399.788 240.45C398.99 238.144 398.103 233.799 398.103 227.591C398.103 220.586 401.296 211.807 409.277 211.807C414.154 211.807 416.725 215.088 418.056 218.103C419.474 221.384 419.474 225.818 419.474 229.631C419.474 234.153 419.474 238.144 417.79 241.514C415.573 245.77 412.38 247.278 408.833 247.278Z" fill="black"/>
<path d="M477.491 171.173C477.55 170.937 477.668 170.582 477.668 170.286C477.668 169.873 477.313 169.577 476.899 169.577C476.486 169.577 476.308 169.754 475.835 170.286L471.697 174.838C471.165 174.07 468.032 169.577 461.115 169.577C447.4 169.577 433.566 182.287 433.566 195.884C433.566 206.171 441.37 212.437 450.769 212.437C458.514 212.437 465.076 207.708 468.268 203.097C470.219 200.2 470.988 197.362 470.988 197.008C470.988 196.476 470.633 196.239 470.101 196.239C469.391 196.239 469.273 196.535 469.096 197.185C466.613 205.343 458.632 210.486 451.538 210.486C445.508 210.486 439.182 206.939 439.182 197.894C439.182 196.003 439.833 186.13 446.395 178.74C450.829 173.774 456.859 171.528 461.529 171.528C468.978 171.528 472.052 177.499 472.052 183.115C472.052 183.943 471.815 185.066 471.815 185.775C471.815 186.544 472.584 186.544 472.82 186.544C473.589 186.544 473.707 186.307 473.943 185.243L477.491 171.173Z" fill="black"/>
<path d="M527.165 209.944C527.253 208.703 527.253 206.575 524.948 206.575C523.529 206.575 522.376 207.728 522.642 208.88V210.033L523.884 223.778L512.533 215.531C511.735 215.088 511.557 214.91 510.937 214.91C509.695 214.91 508.542 216.152 508.542 217.393C508.542 218.812 509.429 219.167 510.316 219.61L522.908 225.64L510.671 231.582C509.252 232.291 508.542 232.646 508.542 233.976C508.542 235.306 509.695 236.459 510.937 236.459C511.557 236.459 511.735 236.459 513.952 234.774L523.884 227.591L522.553 242.489C522.553 244.351 524.15 244.794 524.859 244.794C525.923 244.794 527.253 244.174 527.253 242.489L525.923 227.591L537.274 235.838C538.072 236.281 538.249 236.459 538.87 236.459C540.111 236.459 541.264 235.217 541.264 233.976C541.264 232.646 540.466 232.202 539.402 231.67C534.081 229.01 533.904 229.01 526.899 225.729L539.136 219.788C540.555 219.078 541.264 218.723 541.264 217.393C541.264 216.063 540.111 214.91 538.87 214.91C538.249 214.91 538.072 214.91 535.855 216.595L525.923 223.778L527.165 209.944Z" fill="black"/>
<path d="M597.061 242.666C598.214 247.632 602.47 248.696 604.598 248.696C607.436 248.696 609.564 246.834 610.983 243.819C612.491 240.627 613.643 235.395 613.643 235.129C613.643 234.685 613.289 234.331 612.757 234.331C611.959 234.331 611.87 234.774 611.515 236.104C609.919 242.223 608.323 246.923 604.776 246.923C602.116 246.923 602.116 243.996 602.116 242.843C602.116 240.804 602.382 239.917 603.268 236.193C603.889 233.798 604.51 231.404 605.042 228.921L608.678 214.467C609.298 212.25 609.298 212.073 609.298 211.807C609.298 210.477 608.234 209.59 606.904 209.59C604.332 209.59 603.712 211.807 603.18 214.024C602.293 217.482 597.504 236.547 596.884 239.651C596.795 239.651 593.337 246.923 586.863 246.923C582.252 246.923 581.365 242.932 581.365 239.651C581.365 234.597 583.848 227.502 586.154 221.561C587.218 218.724 587.661 217.571 587.661 215.797C587.661 211.984 584.912 208.703 580.656 208.703C572.498 208.703 569.217 221.561 569.217 222.271C569.217 222.625 569.571 223.069 570.192 223.069C570.99 223.069 571.079 222.714 571.433 221.472C573.562 213.846 577.02 210.477 580.39 210.477C581.277 210.477 582.695 210.565 582.695 213.403C582.695 215.709 581.72 218.28 580.39 221.65C576.488 232.202 576.045 235.572 576.045 238.232C576.045 247.277 582.873 248.696 586.508 248.696C592.184 248.696 595.287 244.794 597.061 242.666Z" fill="black"/>
</svg>
