<svg width="368" height="82" viewBox="0 0 368 82" fill="none" xmlns="http://www.w3.org/2000/svg">
<path d="M63.7459 20.357C63.7459 18.35 63.0769 17.4899 62.4079 17.4899C62.0256 17.4899 61.1655 17.8721 61.0699 20.0703C60.6876 26.6647 53.9977 30.5831 47.7855 30.5831C42.2424 30.5831 37.4639 27.6204 32.4942 24.2754C27.3333 20.8348 22.1725 17.3943 15.9604 17.3943C7.07226 17.3943 0 24.1798 0 32.9724C0 35.0749 0.764574 35.8395 1.338 35.8395C2.29371 35.8395 2.67599 34.0237 2.67599 33.6414C3.15385 25.6134 10.9907 22.7463 15.9604 22.7463C21.5035 22.7463 26.282 25.709 31.2517 29.054C36.4126 32.4945 41.5734 35.9351 47.7855 35.9351C56.6736 35.9351 63.7459 29.1495 63.7459 20.357ZM63.7459 42.7206C63.7459 39.9491 62.5991 39.7579 62.4079 39.7579C62.0256 39.7579 61.1655 40.2358 61.0699 42.3383C60.6876 48.9327 53.9977 52.8511 47.7855 52.8511C42.2424 52.8511 37.4639 49.8884 32.4942 46.5435C27.3333 43.1029 22.1725 39.6623 15.9604 39.6623C7.07226 39.6623 0 46.4479 0 55.2404C0 57.343 0.764574 58.1076 1.338 58.1076C2.29371 58.1076 2.67599 56.2917 2.67599 55.9094C3.15385 47.8815 10.9907 45.0143 15.9604 45.0143C21.5035 45.0143 26.282 47.977 31.2517 51.322C36.4126 54.7626 41.5734 58.2031 47.7855 58.2031C56.8648 58.2031 63.7459 51.1309 63.7459 42.7206Z" fill="black"/>
<path d="M123.149 2.29371C123.149 0.0955725 123.149 0 121.237 0C118.944 2.58042 114.165 6.11655 104.321 6.11655V8.88811C106.519 8.88811 111.298 8.88811 116.554 6.40326V56.1958C116.554 59.6363 116.268 60.7832 107.857 60.7832H104.895V63.5548C107.475 63.3636 116.746 63.3636 119.899 63.3636C123.053 63.3636 132.228 63.3636 134.808 63.5548V60.7832H131.846C123.436 60.7832 123.149 59.6363 123.149 56.1958V2.29371Z" fill="black"/>
<path d="M185.229 32.972C185.229 25.0396 184.751 17.2984 181.311 10.035C177.392 2.10257 170.511 0 165.828 0C160.285 0 153.499 2.77156 149.963 10.704C147.287 16.7249 146.332 22.6503 146.332 32.972C146.332 42.2424 147.001 49.2191 150.441 56.0047C154.168 63.268 160.763 65.5618 165.732 65.5618C174.047 65.5618 178.826 60.5921 181.597 55.0489C185.038 47.8811 185.229 38.5151 185.229 32.972ZM165.732 63.6503C162.674 63.6503 156.462 61.9301 154.646 51.5128C153.595 45.7785 153.595 38.5151 153.595 31.8252C153.595 23.9883 153.595 16.9161 155.124 11.2774C156.749 4.87413 161.623 1.91143 165.732 1.91143C169.364 1.91143 174.907 4.10956 176.723 12.3287C177.966 17.7762 177.966 25.3263 177.966 31.8252C177.966 38.2284 177.966 45.4918 176.914 51.3217C175.098 61.8345 169.077 63.6503 165.732 63.6503Z" fill="black"/>
<path d="M207.84 63.9371C207.84 58.394 206.024 54.2844 202.105 54.2844C199.047 54.2844 197.518 56.7693 197.518 58.8718C197.518 60.9744 198.952 63.5548 202.201 63.5548C203.443 63.5548 204.495 63.1725 205.355 62.3124C205.546 62.1212 205.642 62.1212 205.737 62.1212C205.928 62.1212 205.928 63.4592 205.928 63.9371C205.928 67.0909 205.355 73.3031 199.812 79.5152C198.76 80.662 198.76 80.8532 198.76 81.0443C198.76 81.5222 199.238 82 199.716 82C200.481 82 207.84 74.9278 207.84 63.9371Z" fill="black"/>
<path d="M273.941 32.972C273.941 25.0396 273.463 17.2984 270.022 10.035C266.104 2.10257 259.223 0 254.54 0C248.997 0 242.211 2.77156 238.675 10.704C235.999 16.7249 235.043 22.6503 235.043 32.972C235.043 42.2424 235.712 49.2191 239.153 56.0047C242.88 63.268 249.475 65.5618 254.444 65.5618C262.759 65.5618 267.538 60.5921 270.309 55.0489C273.75 47.8811 273.941 38.5151 273.941 32.972ZM254.444 63.6503C251.386 63.6503 245.174 61.9301 243.358 51.5128C242.307 45.7785 242.307 38.5151 242.307 31.8252C242.307 23.9883 242.307 16.9161 243.836 11.2774C245.461 4.87413 250.335 1.91143 254.444 1.91143C258.076 1.91143 263.619 4.10956 265.435 12.3287C266.677 17.7762 266.677 25.3263 266.677 31.8252C266.677 38.2284 266.677 45.4918 265.626 51.3217C263.81 61.8345 257.789 63.6503 254.444 63.6503Z" fill="black"/>
<path d="M295.5 29.2448C293.875 29.3403 293.493 29.4359 293.493 30.296C293.493 31.2517 293.971 31.2517 295.691 31.2517H300.088C308.211 31.2517 311.843 37.9417 311.843 47.1165C311.843 59.6363 305.344 62.9813 300.661 62.9813C296.074 62.9813 288.237 60.7832 285.465 54.4755C288.523 54.9534 291.295 53.2331 291.295 49.7925C291.295 47.021 289.288 45.1096 286.612 45.1096C284.318 45.1096 281.833 46.4475 281.833 50.0792C281.833 58.5851 290.339 65.5618 300.948 65.5618C312.321 65.5618 320.731 56.8648 320.731 47.2121C320.731 38.4196 313.659 31.5385 304.484 29.9137C312.799 27.5245 318.151 20.5478 318.151 13.0932C318.151 5.54313 310.314 0 301.043 0C291.486 0 284.414 5.82983 284.414 12.8065C284.414 16.6294 287.377 17.3939 288.81 17.3939C290.817 17.3939 293.111 15.9604 293.111 13.0932C293.111 10.035 290.817 8.69697 288.715 8.69697C288.141 8.69697 287.95 8.69697 287.663 8.79255C291.295 2.29371 300.279 2.29371 300.757 2.29371C303.91 2.29371 310.123 3.72728 310.123 13.0932C310.123 14.9091 309.836 20.2611 307.064 24.3706C304.197 28.5757 300.948 28.8625 298.367 28.958L295.5 29.2448Z" fill="black"/>
<path d="M342.29 29.2448C340.666 29.3403 340.283 29.4359 340.283 30.296C340.283 31.2517 340.761 31.2517 342.482 31.2517H346.878C355.001 31.2517 358.633 37.9417 358.633 47.1165C358.633 59.6363 352.134 62.9813 347.451 62.9813C342.864 62.9813 335.027 60.7832 332.255 54.4755C335.314 54.9534 338.085 53.2331 338.085 49.7925C338.085 47.021 336.078 45.1096 333.402 45.1096C331.109 45.1096 328.624 46.4475 328.624 50.0792C328.624 58.5851 337.13 65.5618 347.738 65.5618C359.111 65.5618 367.521 56.8648 367.521 47.2121C367.521 38.4196 360.449 31.5385 351.274 29.9137C359.589 27.5245 364.941 20.5478 364.941 13.0932C364.941 5.54313 357.104 0 347.834 0C338.276 0 331.204 5.82983 331.204 12.8065C331.204 16.6294 334.167 17.3939 335.6 17.3939C337.607 17.3939 339.901 15.9604 339.901 13.0932C339.901 10.035 337.607 8.69697 335.505 8.69697C334.931 8.69697 334.74 8.69697 334.454 8.79255C338.085 2.29371 347.069 2.29371 347.547 2.29371C350.701 2.29371 356.913 3.72728 356.913 13.0932C356.913 14.9091 356.626 20.2611 353.855 24.3706C350.987 28.5757 347.738 28.8625 345.158 28.958L342.29 29.2448Z" fill="black"/>
</svg>
